<?xml version="1.0" standalone="no"?>
<!DOCTYPE svg PUBLIC "-//W3C//DTD SVG 20010904//EN"
 "http://www.w3.org/TR/2001/REC-SVG-20010904/DTD/svg10.dtd">
<svg version="1.0" xmlns="http://www.w3.org/2000/svg"
 width="360.000000pt" height="360.000000pt" viewBox="0 0 360.000000 360.000000"
 preserveAspectRatio="xMidYMid meet">
<metadata>
Created by potrace 1.14, written by Peter Selinger 2001-2017
</metadata>
<g transform="translate(0.000000,360.000000) scale(0.100000,-0.100000)"
fill="#000000" stroke="none">
<path d="M2665 3088 c-237 -146 -359 -221 -490 -301 -77 -47 -356 -217 -620
-379 -264 -162 -526 -323 -583 -358 -92 -56 -103 -65 -100 -89 3 -29 -19 -15
511 -311 92 -52 167 -99 167 -104 0 -6 -120 -171 -266 -366 -146 -195 -315
-422 -377 -505 -61 -82 -115 -156 -120 -163 -14 -18 8 -62 31 -62 10 0 63 28
117 62 242 149 304 186 365 221 36 21 88 52 115 69 41 26 533 328 975 599 320
195 340 209 340 235 0 27 -4 29 -185 131 -276 154 -471 266 -483 278 -11 10
31 72 242 356 141 189 311 418 378 509 67 91 126 171 131 178 14 18 -8 62 -31
62 -10 0 -63 -28 -117 -62z m-399 -592 c-185 -246 -336 -452 -336 -460 0 -20
23 -36 195 -133 88 -49 231 -130 317 -179 87 -48 154 -91 150 -95 -4 -3 -171
-106 -372 -229 -382 -233 -653 -400 -1005 -617 -115 -72 -211 -129 -213 -128
-2 2 146 202 327 445 210 281 331 451 331 466 0 23 -50 53 -529 321 -68 38
-124 73 -125 78 0 5 46 37 104 72 58 35 125 76 150 91 25 16 239 147 475 292
237 144 455 278 485 297 181 113 375 230 378 228 2 -2 -148 -204 -332 -449z"/>
</g>
</svg>
